<svg width="640" height="512" viewBox="0 0 640 512" fill="none" xmlns="http://www.w3.org/2000/svg">
<g clip-path="url(#clip0)">
<path d="M349.9 236.3H283.8V176.9H349.9V236.3ZM349.9 32H283.8V92.7H349.9V32ZM428.1 176.8H362V236.2H428.1V176.8V176.8ZM271.8 104.7H205.7V164.8H271.8V104.7ZM349.9 104.7H283.8V164.8H349.9V104.7ZM626.7 204.7C612.3 195 579.1 191.5 553.6 196.3C550.3 172.3 536.9 151.4 512.5 132.6L498.5 123.3L489.2 137.3C470.8 165.1 465.8 210.9 485.5 241.1C476.8 245.8 459.7 252.2 437.1 251.8H2.39989C-6.30011 302.6 8.19989 368.6 46.3999 413.9C83.4999 457.8 139.1 480.1 211.8 480.1C369.2 480.1 485.7 407.6 540.2 275.9C561.6 276.3 607.8 276 631.5 230.7C633 228.2 638.1 217.5 640 213.6L626.7 204.7V204.7ZM115.6 176.8H49.5999V236.2H115.7V176.8H115.6ZM193.7 176.8H127.6V236.2H193.7V176.8ZM271.8 176.8H205.7V236.2H271.8V176.8ZM193.7 104.7H127.6V164.8H193.7V104.7Z" fill="white"/>
</g>
<defs>
<clipPath id="clip0">
<rect width="640" height="512" fill="white"/>
</clipPath>
</defs>
</svg>
