<svg width="384" height="512" viewBox="0 0 384 512" fill="none" xmlns="http://www.w3.org/2000/svg">
<path d="M277 170.7C299.636 170.7 321.345 161.708 337.352 145.702C353.358 129.695 362.35 107.986 362.35 85.35C362.35 62.7138 353.358 41.0047 337.352 24.9984C321.345 8.99221 299.636 0 277 0L106.3 0C83.677 0 61.9806 8.98694 45.9837 24.9838C29.9869 40.9806 20.9999 62.677 20.9999 85.3C20.9999 107.923 29.9869 129.619 45.9837 145.616C61.9806 161.613 83.677 170.6 106.3 170.6C83.6637 170.6 61.9546 179.592 45.9484 195.598C29.9421 211.605 20.9499 233.314 20.9499 255.95C20.9499 278.586 29.9421 300.295 45.9484 316.302C61.9546 332.308 83.6637 341.3 106.3 341.3C89.4193 341.29 72.9148 346.286 58.8736 355.656C44.8324 365.026 33.885 378.35 27.416 393.942C20.9469 409.534 19.2466 426.694 22.5302 443.252C25.8137 459.81 33.9336 475.023 45.863 486.966C57.7924 498.91 72.9956 507.047 89.5499 510.35C106.104 513.653 123.266 511.973 138.866 505.522C154.465 499.071 167.801 488.14 177.188 474.109C186.575 460.079 191.59 443.581 191.6 426.7V170.7H277ZM277 170.7C260.129 170.7 243.637 175.703 229.61 185.076C215.582 194.449 204.649 207.771 198.193 223.357C191.737 238.944 190.048 256.095 193.339 272.641C196.63 289.188 204.754 304.387 216.684 316.316C228.613 328.246 243.812 336.37 260.359 339.661C276.905 342.952 294.056 341.263 309.643 334.807C325.229 328.351 338.551 317.418 347.924 303.39C357.297 289.363 362.3 272.871 362.3 256C362.297 233.378 353.31 211.683 337.313 195.687C321.317 179.69 299.622 170.703 277 170.7Z" fill="white"/>
</svg>
