<svg width="33" height="42" viewBox="0 0 33 42" fill="none" xmlns="http://www.w3.org/2000/svg">
<path d="M15.6254 36.6329L32.6826 19.5718H20.2799L9.42603 30.4296L15.6254 36.6329Z" fill="white"/>
<path d="M0.121094 21.1246L20.2799 0.96582H32.6826L6.32439 27.3279L0.121094 21.1246Z" fill="white"/>
<path d="M20.2799 41.2834H32.6826L21.8288 30.4296L15.6255 36.6329L20.2799 41.2834Z" fill="white"/>
<path d="M21.8288 30.4296L15.6255 36.6329L24.8256 33.4458L21.8288 30.4296Z" fill="white"/>
<path d="M9.42603 30.4257L15.6293 24.2224L21.8326 30.4257L15.6293 36.6329L9.42603 30.4257Z" fill="white"/>
<path d="M32.6826 19.5718L21.8287 30.4296L32.6826 41.2873H20.2799L15.6254 36.6329L9.42215 30.4296L20.2799 19.5718H32.6826ZM20.2799 0.96582L0.121094 21.1246L6.32439 27.3279L32.6826 0.96582H20.2799V0.96582Z" fill="white"/>
</svg>
