<svg width="204" height="203" viewBox="0 0 204 203" fill="none" xmlns="http://www.w3.org/2000/svg">
<path d="M102 55.6C76.4999 55.6 55.7999 76.3 55.7999 101.8C55.7999 127.3 76.4999 148 102 148C127.5 148 148.2 127.3 148.2 101.8C148.1 76.2 127.4 55.6 102 55.6Z" fill="white"/>
<path d="M168.2 59.7C179.853 59.7 189.3 50.2532 189.3 38.6C189.3 26.9468 179.853 17.5 168.2 17.5C156.547 17.5 147.1 26.9468 147.1 38.6C147.1 50.2532 156.547 59.7 168.2 59.7Z" fill="white"/>
<path d="M194.1 59.7L193.3 57.8L191.9 59.5C188.5 63.4 184 66.4 179.2 68.2L177.8 68.8L178.4 70.2C182.7 80.3 184.7 91 184.7 101.9C184.7 147.5 147.6 184.7 101.9 184.7C56.1999 184.7 19.2 147.5 19.2 101.9C19.2 56.3 56.3 19.1 102 19.1C114.4 19.1 126.2 21.9 137.4 27.1L138.6 27.7L139.2 26.3C141.3 21.5 144.4 17.3 148.6 14L150.3 12.6L148.4 11.6C133.9 4.19999 118.4 0.299988 102 0.299988C46.2 0.299988 0.699951 45.8 0.699951 101.6C0.699951 157.4 46.2 202.9 102 202.9C157.8 202.9 203.3 157.4 203.3 101.6C203.2 87.1 200.1 73.1 194.1 59.7Z" fill="white"/>
</svg>
