<svg width="256" height="249" viewBox="0 0 256 249" fill="none" xmlns="http://www.w3.org/2000/svg">
<path d="M82.0851 244.934C76.1393 244.934 70.5238 242.292 66.7251 237.502L8.91867 165.657C5.11996 160.867 3.6335 154.756 5.11996 148.81L25.7651 59.1277C27.0864 53.1819 31.0503 48.3923 36.5006 45.7497L120.072 5.78064C122.715 4.45935 125.688 3.79871 128.661 3.79871C131.634 3.79871 134.606 4.45935 137.249 5.78064L220.821 45.5845C226.271 48.2271 230.235 53.0168 231.556 58.9626L252.201 148.645C253.523 154.591 252.201 160.702 248.403 165.492L190.596 237.337C186.797 241.961 181.182 244.769 175.236 244.769L82.0851 244.934Z" fill="#1A202C"/>
<path d="M128.495 7.92774C130.808 7.92774 133.12 8.42323 135.267 9.41419L218.839 49.2181C223.133 51.3652 226.436 55.329 227.427 59.9535L248.072 149.636C249.228 154.426 248.072 159.381 244.934 163.179L187.128 235.025C184.155 238.823 179.53 240.97 174.741 240.97H82.0851C77.2955 240.97 72.6709 238.823 69.698 235.025L11.8916 163.179C8.91869 159.381 7.76256 154.426 8.75353 149.636L29.3987 59.9535C30.5548 55.1639 33.6929 51.2 37.9871 49.2181L121.559 9.24903C123.706 8.42323 126.183 7.92774 128.495 7.92774ZM128.495 0.165161C125.027 0.165161 121.559 0.990968 118.255 2.47742L34.6839 42.4465C28.0774 45.5845 23.4529 51.3652 21.8013 58.4671L1.15611 148.15C-0.495503 155.252 1.15611 162.519 5.78063 168.299L63.5871 240.145C68.0464 245.76 74.818 248.898 81.92 248.898H174.575C181.677 248.898 188.449 245.76 192.908 240.145L250.715 168.299C255.339 162.684 256.991 155.252 255.339 148.15L234.694 58.4671C233.043 51.3652 228.418 45.5845 221.812 42.4465L138.57 2.47742C135.432 0.990968 131.964 0.165161 128.495 0.165161Z" fill="white"/>
<path d="M212.232 142.534C212.067 142.534 212.067 142.534 212.232 142.534H212.067C211.902 142.534 211.737 142.534 211.737 142.369C211.406 142.369 211.076 142.204 210.746 142.204C209.59 142.039 208.599 141.874 207.608 141.874C207.112 141.874 206.617 141.874 205.956 141.708H205.791C202.322 141.378 199.515 141.048 196.872 140.222C195.716 139.726 195.386 139.066 195.055 138.405C195.055 138.24 194.89 138.24 194.89 138.075L192.743 137.414C193.734 129.817 193.404 121.889 191.587 114.126C189.77 106.364 186.632 99.0968 182.338 92.4903L183.99 91.0039V90.6736C183.99 89.8478 184.155 89.022 184.815 88.1962C186.797 86.3794 189.275 84.8929 192.248 83.0761C192.743 82.7458 193.239 82.5807 193.734 82.2503C194.725 81.7549 195.551 81.2594 196.542 80.5987C196.707 80.4336 197.037 80.2684 197.368 79.9381C197.533 79.7729 197.698 79.7729 197.698 79.6078C200.01 77.6258 200.506 74.3226 198.854 72.1755C198.028 71.0194 196.542 70.3587 195.055 70.3587C193.734 70.3587 192.578 70.8542 191.422 71.68C191.257 71.8452 191.257 71.8452 191.092 72.0103C190.761 72.1755 190.596 72.5058 190.266 72.671C189.44 73.4968 188.779 74.1574 188.119 74.9832C187.788 75.3136 187.458 75.8091 186.962 76.1394C184.65 78.6168 182.503 80.5987 180.356 82.0852C179.861 82.4155 179.365 82.5807 178.87 82.5807C178.539 82.5807 178.209 82.5807 177.879 82.4155H177.548L175.566 83.7368C173.419 81.4245 171.107 79.4426 168.795 77.4607C158.885 69.6981 146.828 64.9084 134.276 63.7523L134.111 61.6052C133.946 61.44 133.946 61.44 133.781 61.2749C133.285 60.7794 132.624 60.2839 132.459 59.1278C132.294 56.4852 132.624 53.5123 132.955 50.2091V50.0439C132.955 49.5484 133.12 48.8878 133.285 48.3923C133.45 47.4013 133.615 46.4103 133.781 45.2542V44.2632V43.7678C133.781 40.7949 131.468 38.3174 128.661 38.3174C127.339 38.3174 126.018 38.9781 125.027 39.9691C124.036 40.96 123.541 42.2813 123.541 43.7678V44.0981V45.0891C123.541 46.2452 123.706 47.2362 124.036 48.2271C124.201 48.7226 124.201 49.2181 124.366 49.8787V50.0439C124.697 53.3471 125.192 56.32 124.862 58.9626C124.697 60.1187 124.036 60.6142 123.541 61.1097C123.375 61.2749 123.375 61.2749 123.21 61.44L123.045 63.5871C120.072 63.9174 117.099 64.2478 114.126 64.9084C101.409 67.7162 90.178 74.1574 81.4244 83.4065L79.7728 82.2503H79.4425C79.1122 82.2503 78.7818 82.4155 78.4515 82.4155C77.956 82.4155 77.4605 82.2503 76.9651 81.92C74.818 80.4336 72.6709 78.2865 70.3586 75.8091C70.0283 75.4787 69.698 74.9832 69.2025 74.6529C68.5418 73.8271 67.8812 73.1665 67.0554 72.3407C66.8902 72.1755 66.5599 72.0103 66.2296 71.68C66.0644 71.5149 65.8993 71.5149 65.8993 71.3497C64.9083 70.5239 63.587 70.0284 62.2657 70.0284C60.7793 70.0284 59.2928 70.6891 58.467 71.8452C56.8154 73.9923 57.3109 77.2955 59.6231 79.2774C59.7883 79.2774 59.7883 79.4426 59.9534 79.4426C60.2838 79.6078 60.4489 79.9381 60.7793 80.1032C61.7702 80.7639 62.596 81.2594 63.587 81.7549C64.0825 81.92 64.578 82.2503 65.0734 82.5807C68.0463 84.3974 70.5238 85.8839 72.5057 87.7007C73.3315 88.5265 73.3315 89.3523 73.3315 90.1781V90.5084L74.9831 91.9949C74.6528 92.4903 74.3225 92.8207 74.1573 93.3162C65.8993 106.364 62.7612 121.724 64.9083 136.919L62.7612 137.579C62.7612 137.745 62.596 137.745 62.596 137.91C62.2657 138.57 61.7702 139.231 60.7793 139.726C58.3018 140.552 55.3289 140.883 51.8605 141.213H51.6954C51.1999 141.213 50.5393 141.213 50.0438 141.378C49.0528 141.378 48.0618 141.543 46.9057 141.708C46.5754 141.708 46.2451 141.874 45.9147 141.874C45.7496 141.874 45.5844 141.874 45.4193 142.039C42.4463 142.699 40.6296 145.507 41.1251 148.15C41.6205 150.462 43.7676 151.948 46.4102 151.948C46.9057 151.948 47.236 151.948 47.7315 151.783C47.8967 151.783 48.0618 151.783 48.0618 151.618C48.3922 151.618 48.7225 151.453 49.0528 151.453C50.2089 151.123 51.0347 150.792 52.0257 150.297C52.5212 150.132 53.0167 149.801 53.5122 149.636H53.6773C56.8154 148.48 59.6231 147.489 62.2657 147.159H62.596C63.587 147.159 64.2476 147.654 64.7431 147.985C64.9083 147.985 64.9083 148.15 65.0734 148.15L67.3857 147.819C71.3496 160.041 78.947 170.942 89.0218 178.87C91.3341 180.686 93.6463 182.173 96.1238 183.659L95.1328 185.806C95.1328 185.972 95.298 185.972 95.298 186.137C95.6283 186.797 95.9586 187.623 95.6283 188.779C94.6373 191.257 93.1509 193.734 91.3341 196.542V196.707C91.0038 197.203 90.6734 197.533 90.3431 198.028C89.6825 198.854 89.187 199.68 88.5263 200.671C88.3612 200.836 88.196 201.166 88.0309 201.497C88.0309 201.662 87.8657 201.827 87.8657 201.827C86.5444 204.635 87.5354 207.773 90.0128 208.929C90.6734 209.259 91.3341 209.425 91.9947 209.425C93.9767 209.425 95.9586 208.103 96.9496 206.286C96.9496 206.121 97.1147 205.956 97.1147 205.956C97.2799 205.626 97.4451 205.296 97.6102 205.13C98.1057 203.974 98.2709 203.148 98.6012 202.157C98.7663 201.662 98.9315 201.166 99.0967 200.671C100.253 197.368 101.079 194.725 102.565 192.413C103.226 191.422 104.052 191.257 104.712 190.926C104.877 190.926 104.877 190.926 105.042 190.761L106.199 188.614C113.466 191.422 121.393 192.908 129.321 192.908C134.111 192.908 139.066 192.413 143.69 191.257C146.663 190.596 149.471 189.77 152.279 188.779L153.27 190.596C153.435 190.596 153.435 190.596 153.6 190.761C154.426 190.926 155.086 191.257 155.747 192.248C157.068 194.56 158.059 197.368 159.215 200.506V200.671C159.381 201.166 159.546 201.662 159.711 202.157C160.041 203.148 160.206 204.139 160.702 205.13C160.867 205.461 161.032 205.626 161.197 205.956C161.197 206.121 161.362 206.286 161.362 206.286C162.353 208.268 164.335 209.425 166.317 209.425C166.978 209.425 167.639 209.259 168.299 208.929C169.455 208.268 170.446 207.277 170.777 205.956C171.107 204.635 171.107 203.148 170.446 201.827C170.446 201.662 170.281 201.662 170.281 201.497C170.116 201.166 169.951 200.836 169.786 200.671C169.29 199.68 168.63 198.854 167.969 198.028C167.639 197.533 167.308 197.203 166.978 196.707V196.542C165.161 193.734 163.51 191.257 162.684 188.779C162.353 187.623 162.684 186.963 162.849 186.137C162.849 185.972 163.014 185.972 163.014 185.806L162.188 183.825C170.942 178.705 178.374 171.437 183.99 162.519C186.962 157.894 189.275 152.774 190.926 147.654L192.908 147.985C193.073 147.985 193.073 147.819 193.239 147.819C193.899 147.489 194.395 146.994 195.386 146.994H195.716C198.359 147.324 201.166 148.315 204.304 149.471H204.47C204.965 149.636 205.461 149.966 205.956 150.132C206.947 150.627 207.773 150.957 208.929 151.288C209.259 151.288 209.59 151.453 209.92 151.453C210.085 151.453 210.25 151.453 210.415 151.618C210.911 151.783 211.241 151.783 211.737 151.783C214.214 151.783 216.361 150.132 217.022 147.985C217.022 146.003 215.205 143.36 212.232 142.534ZM135.762 134.441L128.495 137.91L121.228 134.441L119.412 126.679L124.366 120.403H132.459L137.414 126.679L135.762 134.441ZM178.87 117.265C180.191 122.88 180.521 128.496 180.026 133.946L154.756 126.679C152.444 126.018 151.122 123.706 151.618 121.394C151.783 120.733 152.113 120.072 152.609 119.577L172.593 101.574C175.401 106.199 177.548 111.484 178.87 117.265ZM164.666 91.6645L143.03 107.025C141.213 108.181 138.735 107.85 137.249 106.034C136.753 105.538 136.588 104.877 136.423 104.217L134.937 77.2955C146.333 78.6168 156.738 83.7368 164.666 91.6645ZM116.769 78.1213C118.586 77.791 120.237 77.4607 122.054 77.1303L120.568 103.556C120.402 105.868 118.586 107.85 116.108 107.85C115.448 107.85 114.622 107.685 114.126 107.355L92.1599 91.6645C98.9315 84.8929 107.355 80.2684 116.769 78.1213ZM84.2322 101.574L103.886 119.081C105.703 120.568 105.868 123.376 104.382 125.192C103.886 125.853 103.226 126.348 102.4 126.514L76.7999 133.946C75.8089 122.715 78.2864 111.319 84.2322 101.574ZM79.7728 146.333L106.033 141.874C108.181 141.708 110.162 143.195 110.658 145.342C110.823 146.333 110.823 147.159 110.493 147.985L100.418 172.263C91.1689 166.317 83.7367 157.234 79.7728 146.333ZM140.057 179.2C136.258 180.026 132.459 180.521 128.495 180.521C122.715 180.521 117.099 179.53 111.814 177.879L124.862 154.261C126.183 152.774 128.33 152.114 130.147 153.105C130.973 153.6 131.633 154.261 132.129 154.921L144.846 177.879C143.36 178.374 141.708 178.705 140.057 179.2ZM172.263 156.243C168.134 162.849 162.684 168.134 156.408 172.263L146.002 147.324C145.507 145.342 146.333 143.195 148.315 142.204C148.975 141.874 149.801 141.708 150.627 141.708L177.053 146.168C176.062 149.801 174.41 153.105 172.263 156.243Z" fill="white"/>
</svg>
