<svg width="31" height="32" viewBox="0 0 31 32" fill="none" xmlns="http://www.w3.org/2000/svg">
<path fill-rule="evenodd" clip-rule="evenodd" d="M30.7681 7.11647C30.7795 7.15841 30.7854 7.20165 30.7855 7.24509V13.9971C30.7855 14.0838 30.7624 14.1689 30.7187 14.2439C30.6749 14.3189 30.612 14.3811 30.5362 14.4242L24.8267 17.6869V24.154C24.8267 24.33 24.7324 24.4925 24.5787 24.5811L12.6604 31.3909C12.6331 31.4063 12.6034 31.4162 12.5736 31.4266C12.5624 31.4303 12.5519 31.4371 12.5401 31.4402C12.4568 31.4619 12.3692 31.4619 12.2859 31.4402C12.2723 31.4365 12.2599 31.4291 12.2469 31.4242C12.2196 31.4143 12.1911 31.4057 12.165 31.3909L0.24924 24.5811C0.173543 24.5379 0.110646 24.4757 0.0668884 24.4007C0.0231312 24.3258 5.99784e-05 24.2407 0 24.154L0 3.89801C0 3.8537 0.0062 3.81063 0.01736 3.76878C0.02108 3.75463 0.02976 3.7417 0.03472 3.72755C0.04402 3.7017 0.0527 3.67524 0.06634 3.65124C0.07564 3.63524 0.08928 3.62232 0.10044 3.60755C0.1147 3.58786 0.12772 3.56755 0.14446 3.55032C0.15872 3.53616 0.17732 3.5257 0.19344 3.5134C0.21142 3.49863 0.22754 3.48263 0.248 3.47093H0.24862L6.20682 0.0660111C6.28226 0.0229222 6.36778 0.000244141 6.45482 0.000244141C6.54186 0.000244141 6.62738 0.0229222 6.70282 0.0660111L12.661 3.47093H12.6623C12.6821 3.48324 12.6988 3.49863 12.7168 3.51278C12.7329 3.52509 12.7509 3.53617 12.7652 3.5497C12.7825 3.56755 12.7949 3.58786 12.8098 3.60755C12.8204 3.62232 12.8346 3.63524 12.8433 3.65124C12.8576 3.67586 12.8656 3.7017 12.8755 3.72755C12.8805 3.7417 12.8892 3.75463 12.8929 3.7694C12.9043 3.81133 12.9102 3.85457 12.9103 3.89801V16.5497L17.8752 13.7122V7.24447C17.8752 7.2014 17.8814 7.1577 17.8926 7.11647C17.8969 7.1017 17.905 7.08878 17.9099 7.07463C17.9199 7.04878 17.9285 7.02232 17.9422 6.99832C17.9515 6.98232 17.9651 6.9694 17.9757 6.95463C17.9905 6.93493 18.0029 6.91463 18.0203 6.8974C18.0346 6.88324 18.0525 6.87278 18.0687 6.86047C18.0873 6.8457 18.1034 6.8297 18.1232 6.81801H18.1238L24.0827 3.41309C24.1581 3.36994 24.2436 3.34723 24.3307 3.34723C24.4177 3.34723 24.5032 3.36994 24.5787 3.41309L30.5369 6.81801C30.5579 6.83032 30.5741 6.8457 30.5927 6.85986C30.6082 6.87217 30.6261 6.88324 30.6404 6.89678C30.6578 6.91463 30.6702 6.93493 30.685 6.95463C30.6962 6.9694 30.7098 6.98232 30.7185 6.99832C30.7328 7.02232 30.7408 7.04878 30.7508 7.07463C30.7563 7.08878 30.7644 7.1017 30.7681 7.11647ZM29.7922 13.7122V8.0974L27.7072 9.28878L24.8267 10.9349V16.5497L29.7929 13.7122H29.7922ZM23.834 23.8691V18.2506L21.0006 19.8568L12.9096 24.4402V30.1115L23.834 23.8691ZM0.99324 4.75032V23.8691L11.9164 30.1109V24.4408L6.20992 21.2352L6.20806 21.234L6.20558 21.2328C6.18636 21.2217 6.17024 21.2057 6.15226 21.1922C6.13676 21.1799 6.11878 21.17 6.10514 21.1565L6.1039 21.1546C6.08778 21.1392 6.07662 21.1202 6.06298 21.1029C6.05058 21.0863 6.0357 21.0722 6.02578 21.0549L6.02516 21.0531C6.014 21.0346 6.00718 21.0125 5.99912 20.9916C5.99106 20.9731 5.98052 20.9559 5.97556 20.9362V20.9356C5.96936 20.9122 5.96812 20.8876 5.96564 20.8636C5.96316 20.8451 5.9582 20.8266 5.9582 20.8082V20.8069V7.58786L3.0783 5.94109L0.99324 4.75093V4.75032ZM6.45544 1.0617L1.4911 3.89801L6.4542 6.73432L11.4179 3.8974L6.4542 1.0617H6.45544ZM9.03712 18.7626L11.917 17.1171V4.75032L9.83196 5.9417L6.95144 7.58786V19.9546L9.03712 18.7626ZM24.3307 4.40878L19.3669 7.24509L24.3307 10.0814L29.2938 7.24447L24.3307 4.40878ZM23.834 10.9349L20.9535 9.28878L18.8685 8.0974V13.7122L21.7484 15.3577L23.834 16.5497V10.9349ZM12.4124 23.5879L19.6931 19.4623L23.3325 17.4008L18.3725 14.5663L12.6616 17.8297L7.45674 20.8039L12.4124 23.5879Z" fill="white"/>
</svg>
