<svg width="256" height="230" viewBox="0 0 256 230" fill="none" xmlns="http://www.w3.org/2000/svg">
<path d="M201.025 79.6741C198.68 78.8673 196.252 78.1039 193.751 77.382C194.162 75.7044 194.539 74.0485 194.874 72.4208C200.381 45.6935 196.781 24.1617 184.487 17.0726C172.7 10.275 153.422 17.3625 133.952 34.3064C132.08 35.9357 130.202 37.6607 128.326 39.4686C127.075 38.2725 125.827 37.1166 124.582 36.0109C104.177 17.8934 83.7242 10.2585 71.4431 17.3682C59.6667 24.1855 56.1792 44.4274 61.1355 69.7571C61.6141 72.2037 62.1736 74.7021 62.8062 77.2424C59.9116 78.0641 57.1171 78.9401 54.4433 79.872C30.5209 88.2124 15.2429 101.284 15.2429 114.842C15.2429 128.846 31.6438 142.891 56.5609 151.408C58.5272 152.08 60.5676 152.716 62.6703 153.319C61.9878 156.066 61.3941 158.759 60.8958 161.385C56.1699 186.275 59.8605 206.038 71.6056 212.813C83.7371 219.808 104.097 212.618 123.923 195.288C125.49 193.918 127.062 192.465 128.638 190.942C130.68 192.909 132.719 194.77 134.746 196.515C153.95 213.04 172.916 219.713 184.651 212.92C196.77 205.904 200.709 184.673 195.595 158.842C195.205 156.869 194.75 154.854 194.24 152.803C195.67 152.38 197.073 151.944 198.442 151.49C224.346 142.908 241.199 129.033 241.199 114.842C241.199 101.235 225.429 88.0753 201.025 79.6741Z" fill="white"/>
<path d="M195.511 142.183C194.275 142.592 193.008 142.987 191.716 143.37C188.856 134.317 184.997 124.691 180.274 114.745C184.781 105.035 188.491 95.5319 191.27 86.5375C193.582 87.2063 195.825 87.9118 197.987 88.6563C218.897 95.8544 231.651 106.497 231.651 114.697C231.651 123.432 217.877 134.772 195.511 142.183ZM186.231 160.572C188.492 171.994 188.815 182.321 187.317 190.394C185.971 197.648 183.265 202.484 179.918 204.421C172.797 208.543 157.569 203.185 141.146 189.053C139.264 187.433 137.367 185.703 135.465 183.872C141.832 176.909 148.195 168.814 154.405 159.823C165.329 158.854 175.649 157.269 185.007 155.106C185.468 156.965 185.878 158.789 186.231 160.572ZM92.3813 203.709C85.424 206.166 79.8829 206.236 76.5334 204.305C69.406 200.194 66.443 184.326 70.4847 163.04C70.9477 160.602 71.4987 158.098 72.1338 155.538C81.39 157.585 91.6344 159.058 102.584 159.946C108.836 168.743 115.383 176.829 121.981 183.91C120.539 185.301 119.103 186.626 117.676 187.874C108.909 195.538 100.124 200.975 92.3813 203.709ZM59.7874 142.129C48.7696 138.363 39.6706 133.469 33.4337 128.128C27.8295 123.329 25 118.564 25 114.697C25 106.47 37.2667 95.9751 57.7254 88.8421C60.2077 87.9766 62.8063 87.1609 65.5031 86.3947C68.3306 95.5922 72.0396 105.208 76.5157 114.932C71.9817 124.801 68.22 134.57 65.3647 143.875C63.4422 143.323 61.5796 142.741 59.7874 142.129ZM70.7132 67.7584C66.4668 46.0565 69.287 29.6854 76.3838 25.5773C83.9431 21.201 100.659 27.4407 118.277 43.0843C119.403 44.0841 120.534 45.1306 121.667 46.2134C115.102 53.2627 108.615 61.2882 102.419 70.0336C91.7917 71.0186 81.6192 72.6009 72.2665 74.7197C71.6785 72.3543 71.1576 70.0304 70.7132 67.7584ZM168.181 91.8256C165.945 87.9637 163.649 84.1931 161.309 80.5254C168.519 81.4368 175.426 82.6466 181.913 84.1271C179.965 90.3684 177.538 96.8941 174.681 103.584C172.631 99.6926 170.464 95.7692 168.181 91.8256ZM128.434 53.1119C132.886 57.9355 137.345 63.3209 141.73 69.1641C137.311 68.9553 132.837 68.8467 128.326 68.8467C123.857 68.8467 119.416 68.9529 115.024 69.158C119.414 63.3692 123.912 57.991 128.434 53.1119ZM88.4321 91.8924C86.1987 95.7652 84.071 99.6673 82.0536 103.577C79.2426 96.9102 76.8379 90.3548 74.8735 84.0249C81.3204 82.5823 88.1952 81.4026 95.3588 80.5085C92.9858 84.21 90.6715 88.0091 88.4321 91.8924ZM95.5651 149.575C88.1638 148.749 81.1857 147.63 74.7404 146.228C76.7361 139.785 79.194 133.089 82.0645 126.279C84.0871 130.186 86.2232 134.09 88.4703 137.971C90.7592 141.925 93.131 145.798 95.5651 149.575ZM128.701 176.964C124.126 172.027 119.562 166.567 115.106 160.694C119.432 160.864 123.843 160.95 128.326 160.95C132.931 160.95 137.484 160.847 141.966 160.647C137.566 166.626 133.123 172.095 128.701 176.964ZM174.773 125.932C177.793 132.816 180.339 139.476 182.361 145.809C175.809 147.304 168.736 148.508 161.283 149.402C163.629 145.685 165.944 141.85 168.219 137.904C170.521 133.913 172.707 129.916 174.773 125.932ZM159.858 133.082C156.326 139.206 152.7 145.053 149.018 150.571C142.313 151.051 135.386 151.298 128.326 151.298C121.294 151.298 114.454 151.079 107.868 150.652C104.038 145.061 100.333 139.197 96.8236 133.135C93.3232 127.089 90.1024 120.992 87.1833 114.929C90.1016 108.852 93.3148 102.749 96.795 96.7135L96.7942 96.7147C100.284 90.6637 103.956 84.8285 107.751 79.2726C114.47 78.7646 121.361 78.4995 128.325 78.4995C135.321 78.4995 142.221 78.7666 148.939 79.279C152.675 84.7944 156.323 90.6106 159.826 96.6625C163.369 102.782 166.624 108.845 169.567 114.792C166.633 120.841 163.385 126.965 159.858 133.082ZM179.77 25.2901C187.337 29.6536 190.279 47.2514 185.525 70.3276C185.222 71.8001 184.881 73.2999 184.51 74.8198C175.135 72.6568 164.956 71.0472 154.298 70.0473C148.089 61.2058 141.655 53.1678 135.197 46.2089C136.933 44.5386 138.667 42.9459 140.394 41.4429C157.075 26.9255 172.667 21.1937 179.77 25.2901Z" fill="#1A202C"/>
<path d="M128.221 94.6653C139.365 94.6653 148.398 103.699 148.398 114.842C148.398 125.986 139.365 135.02 128.221 135.02C117.078 135.02 108.044 125.986 108.044 114.842C108.044 103.699 117.078 94.6653 128.221 94.6653Z" fill="white"/>
</svg>
