<svg width="87" height="109" viewBox="0 0 87 109" fill="none" xmlns="http://www.w3.org/2000/svg">
<path d="M60.5342 33.6705H84.7728C84.5683 14.0853 68.9717 0.840942 44.6308 0.840942C20.6989 0.840942 3.466 13.8807 3.61941 33.3637C3.56827 49.2671 14.716 58.216 32.8183 62.358L43.7615 64.9148C55.2671 67.5739 60.4319 70.6932 60.5342 76.5739C60.4319 82.9659 54.449 87.4148 44.2728 87.4148C33.074 87.4148 25.7103 82.1989 25.1478 72.125H0.90918C1.216 96.6194 18.2444 108.33 44.5796 108.33C70.6592 108.33 86.1024 96.5171 86.2046 76.625C86.1024 59.9034 74.8012 49.6762 54.1421 45.125L45.1421 43.0796C35.6308 41.0341 29.5967 37.8637 29.8012 31.625C29.8524 25.8978 34.7615 21.7557 44.5796 21.7557C54.449 21.7557 59.8694 26.2046 60.5342 33.6705Z" fill="white"/>
</svg>
