<svg width="147" height="156" viewBox="0 0 147 156" fill="none" xmlns="http://www.w3.org/2000/svg">
<path d="M63.1279 84.0408L84.1639 71.8728L104.9 84.0408L84.1639 96.0148L63.1279 84.3268V84.0408Z" fill="white"/>
<path d="M0 47.9738L84.164 0.170837L146.789 35.7708L125.971 71.8718L84.164 47.9738L21.051 83.7988L0 47.9738Z" fill="white"/>
<path d="M63.128 131.845V108.015L83.877 96.0149L104.9 84.0409V108.015L84.164 119.925V143.77L63.128 155.987V131.845ZM63.128 84.0409L42.1 72.1269L21.051 83.7979V59.9199L84.164 24.0679V71.8709L63.128 84.0409ZM125.684 59.9209V47.9739L146.789 35.7709L147 59.6699L125.971 71.8719L125.684 59.9209Z" fill="#EDF2F7"/>
<path d="M42.1 143.329V72.1269L62.841 60.4599L63.128 84.0408L84.164 95.7989V119.925L63.128 108.728V155.987L42.1 143.329ZM10.374 77.5829L0 71.3719V47.9749L21.051 59.9219V83.7999L10.374 77.5829ZM84.164 47.9739V24.0688L125.684 47.9739L125.971 71.8719L84.164 47.9739Z" fill="#A0AEC0"/>
</svg>
