<svg width="186" height="186" viewBox="0 0 186 186" fill="none" xmlns="http://www.w3.org/2000/svg">
<path d="M171.12 103.23C170.655 106.485 169.26 109.74 168.33 112.53C166.935 115.32 165.54 118.11 163.68 120.9C161.82 123.69 156.24 130.665 148.8 134.85C141.36 139.035 134.385 140.43 130.2 141.36C132.99 133.92 134.85 126.48 134.85 118.11V35.8047L172.05 14.4147V93.0001C172.05 96.7201 172.05 99.9751 171.12 103.23ZM92.0699 168.33C88.8149 169.725 84.1649 171.585 80.4449 172.515C76.7249 173.445 73.4699 173.445 69.7499 173.445C66.0299 173.445 62.3099 172.98 58.5899 172.05C54.8699 171.12 51.6149 170.19 48.3599 168.795C45.1049 167.4 41.8499 165.54 39.0599 163.68C30.69 158.565 26.505 153.915 23.25 148.8C21.39 146.01 19.53 142.755 18.135 139.5C16.74 136.245 15.81 132.525 14.88 128.805C13.95 125.085 13.95 121.365 13.95 117.645V42.7802L60.4499 14.4147V93.0001C60.4499 122.76 82.3049 147.87 110.205 153.915C109.275 155.31 108.345 156.705 106.95 157.635C101.835 162.75 97.6499 166.005 92.0699 168.33ZM61.8449 0.000274241L0 35.8047V117.645C0 155.31 30.225 186 67.8899 186C80.4449 186 92.0699 182.745 102.3 177.165L152.52 148.335C172.515 137.64 186 117.18 186 93.0001V7.44026L173.91 0.464705L120.9 28.8302V118.11C120.9 121.83 120.435 125.55 119.97 129.27C119.04 132.99 118.11 136.245 116.715 139.5L115.32 142.29C113.46 142.29 101.835 138.105 95.7899 133.92C92.9999 132.06 90.6749 130.2 88.3499 127.875C86.0249 125.55 84.1649 123.225 82.3049 120.435C80.4449 117.645 79.0499 114.855 77.6549 112.065C76.2599 109.275 75.3299 106.02 74.8649 102.765C74.3999 99.5101 74.3999 96.2551 74.3999 93.0001V7.44026L61.8449 0.000274241Z" fill="white"/>
</svg>
