<svg width="54" height="63" viewBox="0 0 54 63" fill="none" xmlns="http://www.w3.org/2000/svg">
<path d="M9.57447 34.9787H1M1.31915 34.6383L1.31915 1M1.31915 63L1.31915 38.5957M1.65957 1.31915H51.1277M1.65957 62H51.1277M52.1277 1L52.1277 63M43.6079 46.4223C39.2639 51.3532 34.2546 53.8187 28.5801 53.8187C25.6841 53.8187 23.023 53.2121 20.5966 51.999C18.2094 50.7466 16.1353 49.1226 14.3742 47.1267C12.6523 45.1308 11.3021 42.8806 10.3237 40.3759C9.38451 37.8322 8.91489 35.2689 8.91489 32.686C8.91489 29.9857 9.38451 27.3636 10.3237 24.8199C11.263 22.2761 12.5544 20.0259 14.1981 18.0691C15.8809 16.0733 17.8768 14.4883 20.1857 13.3143C22.5338 12.1402 25.0971 11.5532 27.8757 11.5532C30.0281 11.5532 31.9457 11.788 33.6285 12.2576C35.3113 12.6881 36.7984 13.3143 38.0899 14.1361C39.3813 14.9188 40.4771 15.8776 41.3772 17.0125C42.3164 18.1083 43.1187 19.3214 43.784 20.652L42.6686 21.0042C41.0641 18.0691 39.0095 15.9559 36.5049 14.6644C34.0003 13.373 31.1239 12.7272 27.8757 12.7272C25.1362 12.7272 22.6708 13.3143 20.4792 14.4883C18.2877 15.6232 16.4092 17.1299 14.8438 19.0084C13.3176 20.8868 12.1435 23.0197 11.3217 25.4069C10.4999 27.7941 10.0889 30.2205 10.0889 32.686C10.0889 35.308 10.5586 37.8322 11.4978 40.2585C12.4762 42.6457 13.8067 44.759 15.4895 46.5984C17.1723 48.4377 19.1291 49.9052 21.3597 51.001C23.5904 52.0968 25.9972 52.6447 28.5801 52.6447C31.3195 52.6447 33.922 52.0185 36.3875 50.7662C38.853 49.5139 41.2598 47.518 43.6079 44.7786V35.2979H33.8046V33.9787L44.5319 33.9787V59.0426H43.6079V46.4223Z" stroke="white" stroke-width="2"/>
</svg>
